<mxfile host="app.diagrams.net" modified="2023-10-15T14:39:08.666Z" agent="Mozilla/5.0 (Macintosh; Intel Mac OS X 10_15_7) AppleWebKit/537.36 (KHTML, like Gecko) Chrome/113.0.0.0 Safari/537.36" version="22.0.4" etag="LkEc6As-z12kzBv9PCEf" type="github">
  <diagram name="Trang-1" id="tFL8hq-wuogC6S68OK9b">
    <mxGraphModel>
      <root>
        <mxCell id="0" />
        <mxCell id="1" parent="0" />
      </root>
    </mxGraphModel>
  </diagram>
</mxfile>
